<svg width="14" height="14" viewBox="0 0 14 14" fill="none" xmlns="http://www.w3.org/2000/svg">
<path d="M8.0865 8.57936C7.71442 9.0373 7.52838 9.26627 7.3044 9.3494C7.10797 9.42231 6.89191 9.42231 6.69548 9.3494C6.4715 9.26627 6.28546 9.0373 5.91338 8.57936L5.06308 7.53283C4.4701 6.80301 4.17361 6.4381 4.17165 6.13058C4.16994 5.86319 4.2906 5.60969 4.49921 5.44239C4.73911 5.25 5.20928 5.25 6.14963 5.25H7.85025C8.7906 5.25 9.26077 5.25 9.50067 5.44239C9.70928 5.60969 9.82994 5.86319 9.82823 6.13058C9.82627 6.4381 9.52978 6.80301 8.9368 7.53283L8.0865 8.57936Z" fill="black"/>
</svg>
